HIERARCHY
ROOT hip
{
  OFFSET 0 0 0
  CHANNELS 6 Xposition Yposition Zposition Zrotation Yrotation Xrotation
  JOINT abdomen
  {
    OFFSET 0 20.6881 -0.73152
    CHANNELS 3 Zrotation Xrotation Yrotation
    JOINT chest
    {
      OFFSET 0 11.7043 -0.48768
      CHANNELS 3 Zrotation Xrotation Yrotation
      JOINT neck
      {
        OFFSET 0 22.1894 -2.19456
        CHANNELS 3 Zrotation Xrotation Yrotation
        JOINT head
        {
          OFFSET -0.24384 7.07133 1.2192
          CHANNELS 3 Zrotation Xrotation Yrotation
          JOINT leftEye
          {
            OFFSET 4.14528 8.04674 8.04672
            CHANNELS 3 Zrotation Xrotation Yrotation
            End Site
            {
              OFFSET 1 0 0
            }
          }
          JOINT rightEye
          {
            OFFSET -3.6576 8.04674 8.04672
            CHANNELS 3 Zrotation Xrotation Yrotation
            End Site
            {
              OFFSET 1 0 0
            }
          }
        }
      }
      JOINT rCollar
      {
        OFFSET -2.68224 19.2634 -4.8768
        CHANNELS 3 Zrotation Xrotation Yrotation
        JOINT rShldr
        {
          OFFSET -8.77824 -1.95073 1.46304
          CHANNELS 3 Zrotation Xrotation Yrotation
          JOINT rForeArm
          {
            OFFSET -28.1742 -1.7115 0.48768
            CHANNELS 3 Zrotation Xrotation Yrotation
            JOINT rHand
            {
              OFFSET -22.5879 0.773209 7.07136
              CHANNELS 3 Zrotation Xrotation Yrotation
              JOINT rThumb1
              {
                OFFSET -1.2192 -0.487915 3.41376
                CHANNELS 3 Zrotation Xrotation Yrotation
                JOINT rThumb2
                {
                  OFFSET -3.37035 -0.52449 3.41376
                  CHANNELS 3 Zrotation Xrotation Yrotation
                  End Site
                  {
                    OFFSET -1.78271 -1.18214 1.43049
                  }
                }
              }
              JOINT rIndex1
              {
                OFFSET -7.75947 0.938293 5.60832
                CHANNELS 3 Zrotation Xrotation Yrotation
                JOINT rIndex2
                {
                  OFFSET -2.54057 -0.884171 1.56538
                  CHANNELS 3 Zrotation Xrotation Yrotation
                  End Site
                  {
                    OFFSET -1.62519 -0.234802 1.16502
                  }
                }
              }
              JOINT rMid1
              {
                OFFSET -8.24714 1.18213 3.41376
                CHANNELS 3 Zrotation Xrotation Yrotation
                JOINT rMid2
                {
                  OFFSET -3.10165 -0.590103 1.0647
                  CHANNELS 3 Zrotation Xrotation Yrotation
                  End Site
                  {
                    OFFSET -2.48547 -0.328903 0.83742
                  }
                }
              }
              JOINT rRing1
              {
                OFFSET -8.82822 0.546677 1.51678
                CHANNELS 3 Zrotation Xrotation Yrotation
                JOINT rRing2
                {
                  OFFSET -2.60934 -0.819778 -0.0198488
                  CHANNELS 3 Zrotation Xrotation Yrotation
                  End Site
                  {
                    OFFSET -2.33842 -0.294052 0.168128
                  }
                }
              }
              JOINT rPinky1
              {
                OFFSET -8.27202 -0.0477905 -0.4584
                CHANNELS 3 Zrotation Xrotation Yrotation
                JOINT rPinky2
                {
                  OFFSET -1.82734 -0.647385 -0.700984
                  CHANNELS 3 Zrotation Xrotation Yrotation
                  End Site
                  {
                    OFFSET -1.69225 -0.51767 -0.607171
                  }
                }
              }
            }
          }
        }
      }
      JOINT lCollar
      {
        OFFSET 2.68224 19.2634 -4.8768
        CHANNELS 3 Zrotation Xrotation Yrotation
        JOINT lShldr
        {
          OFFSET 8.77824 -1.95073 1.46304
          CHANNELS 3 Zrotation Xrotation Yrotation
          JOINT lForeArm
          {
            OFFSET 28.1742 -1.7115 0.48768
            CHANNELS 3 Zrotation Xrotation Yrotation
            JOINT lHand
            {
              OFFSET 22.5879 0.773209 7.07136
              CHANNELS 3 Zrotation Xrotation Yrotation
              JOINT lThumb1
              {
                OFFSET 1.2192 -0.487915 3.41376
                CHANNELS 3 Zrotation Xrotation Yrotation
                JOINT lThumb2
                {
                  OFFSET 3.37035 -0.52449 3.41376
                  CHANNELS 3 Zrotation Xrotation Yrotation
                  End Site
                  {
                    OFFSET 1.78271 -1.18214 1.43049
                  }
                }
              }
              JOINT lIndex1
              {
                OFFSET 7.75947 0.938293 5.60832
                CHANNELS 3 Zrotation Xrotation Yrotation
                JOINT lIndex2
                {
                  OFFSET 2.54057 -0.884171 1.56538
                  CHANNELS 3 Zrotation Xrotation Yrotation
                  End Site
                  {
                    OFFSET 1.62519 -0.234802 1.16502
                  }
                }
              }
              JOINT lMid1
              {
                OFFSET 8.24714 1.18213 3.41376
                CHANNELS 3 Zrotation Xrotation Yrotation
                JOINT lMid2
                {
                  OFFSET 3.10165 -0.590103 1.0647
                  CHANNELS 3 Zrotation Xrotation Yrotation
                  End Site
                  {
                    OFFSET 2.48547 -0.328903 0.83742
                  }
                }
              }
              JOINT lRing1
              {
                OFFSET 8.82822 0.546677 1.51678
                CHANNELS 3 Zrotation Xrotation Yrotation
                JOINT lRing2
                {
                  OFFSET 2.60934 -0.819778 -0.0198488
                  CHANNELS 3 Zrotation Xrotation Yrotation
                  End Site
                  {
                    OFFSET 2.33842 -0.294052 0.168128
                  }
                }
              }
              JOINT lPinky1
              {
                OFFSET 8.27202 -0.0477905 -0.4584
                CHANNELS 3 Zrotation Xrotation Yrotation
                JOINT lPinky2
                {
                  OFFSET 1.82734 -0.647385 -0.700984
                  CHANNELS 3 Zrotation Xrotation Yrotation
                  End Site
                  {
                    OFFSET 1.69225 -0.51767 -0.607171
                  }
                }
              }
            }
          }
        }
      }
    }
  }
  JOINT rButtock
  {
    OFFSET -8.77824 4.35084 1.2192
    CHANNELS 3 Zrotation Xrotation Yrotation
    JOINT rThigh
    {
      OFFSET 0 -1.70687 -2.19456
      CHANNELS 3 Zrotation Xrotation Yrotation
      JOINT rShin
      {
        OFFSET 0 -36.8199 0.73152
        CHANNELS 3 Zrotation Xrotation Yrotation
        JOINT rFoot
        {
          OFFSET 0.73152 -45.1104 -5.12064
          CHANNELS 3 Zrotation Xrotation Yrotation
          End Site
          {
            OFFSET -1.1221 -3.69964 12.103
          }
        }
      }
    }
  }
  JOINT lButtock
  {
    OFFSET 8.77824 4.35084 1.2192
    CHANNELS 3 Zrotation Xrotation Yrotation
    JOINT lThigh
    {
      OFFSET 0 -1.70687 -2.19456
      CHANNELS 3 Zrotation Xrotation Yrotation
      JOINT lShin
      {
        OFFSET 0 -36.8199 0.73152
        CHANNELS 3 Zrotation Xrotation Yrotation
        JOINT lFoot
        {
          OFFSET -0.73152 -45.1104 -5.12064
          CHANNELS 3 Zrotation Xrotation Yrotation
          End Site
          {
            OFFSET 1.1221 -3.69964 12.103
          }
        }
      }
    }
  }
}
MOTION
Frames:	7
Frame Time:	0.03333
-6.0275 38.017 -18.259600000000002 -167.927868 67.422988 -160.621507 -0.589467 12.22184 162.509288 -2.553246 10.387847 -141.249298 -10.68359 24.786935 -78.343689 34.601808 9.753891 116.357737 -0.000218 -0.0 0.003041 -0.000218 -0.0 0.003041 0.283069 -1.731415 -0.380326 47.249414 20.092759 17.517248 100.463304 37.114724 54.452725 -153.773238 61.66679 130.558642 178.620094 -18.760478 89.038972 7.104552 -63.189714 6.157068 2.325707 -3.867714 -1.260434 -65.474943 48.474871 50.844841 -152.827143 14.793548 138.515267 -172.227775 -31.372954 143.673502 -70.381344 -72.129667 -87.280276 -150.979133 0.133379 176.283219 -152.200621 37.329721 -147.583513 -127.023472 -29.823115 -124.122731 155.50401 -3.514441 -161.838812 -90.425831 86.411492 124.408805 -171.11907 -43.70275 -26.90532 163.485532 17.773249 -137.451355 -51.059938 -41.203777 -12.856933 11.67641 -17.725268 21.405066 -1.085118 -1.784228 0.602563 -1.206891 14.232474 -2.845848 0.221169 0.638225 -0.122493 -86.238584 -78.351333 -57.497936 -0.004419 1.77133 -0.55686 -9.091958 12.714265 -1.661008 -1.300057 3.491529 -1.191133 -28.238532 75.249792 -6.332251 -179.993854 75.748691 -0.006341 126.369545 -7.113449 -180.0 -178.931704 -63.419273 109.801268 151.106916 60.434655 117.687186 -0.003823 0.0007 -0.003824 113.907421 -48.815609 108.449757 134.983667 57.427925 -52.50697 -32.152537 22.503222 -85.018754
-6.0694 38.0765 -18.2831 -167.442799 67.336956 -160.095698 -1.114244 12.811694 138.617109 -7.499836 8.35782 -116.932414 11.079441 26.247525 109.502561 -30.683088 15.832971 -67.644332 -0.002621 0.0 -8.3e-05 -0.002621 0.0 -8.3e-05 -130.419655 54.548674 134.286659 -101.360912 46.91021 79.37968 -92.309955 32.20309 -109.560478 22.710626 -47.481666 12.931944 178.33874 -19.018368 88.989378 -103.719311 18.464723 44.439015 -50.387 40.82609 40.024643 5.778585 1.24326 -2.61187 -160.098274 -4.901114 142.969005 -2.238634 14.692644 3.040806 -0.014946 -1.322873 -0.417686 -23.286351 72.958249 36.423864 -140.594287 -1.001843 -137.665543 17.150556 43.751699 6.08582 0.164907 0.979245 -0.218647 -58.404151 -2.266694 -19.178703 10.221631 -27.419873 -103.194686 5.94279 -27.652586 6.158703 175.198207 -12.846065 -89.807932 96.549537 13.936426 -38.722823 50.38702 40.825688 -40.025066 3.315361 14.365235 -0.511496 89.835026 60.702287 -81.262998 172.001382 -31.385094 -143.87704 74.840751 72.961773 -92.827679 -5.134867 27.97627 0.776357 -54.223932 87.259219 14.506192 1.77883 -7.739268 3.695301 -179.992222 75.751063 -0.0064 126.526027 -6.832845 180.0 -179.85352 -67.595646 73.223911 -100.082389 64.468687 3.203498 179.997862 75.749278 0.001094 -137.748231 -28.761098 -180.0 -168.660479 -70.305318 -26.474964 -120.721507 -42.298969 -26.546684
-6.1213 38.136700000000005 -18.337 -167.069048 67.289924 -159.617131 0.626044 16.966093 3.353795 -2.493492 -15.260404 17.158236 -6.852936 32.243731 -128.62122 25.616269 34.115184 161.944033 0.003426 -0.0 -0.00079 -0.00228 0.0 -0.000852 -0.048721 0.292428 0.064921 40.692073 32.888258 22.368945 81.980581 37.11725 78.293247 -147.035705 65.878957 124.775445 -67.034155 37.762239 34.644445 -130.945039 -24.814234 85.406391 -151.353271 -17.158727 121.132305 -151.698653 4.468823 117.920361 -0.056676 0.168027 0.032192 2.671575 1.65123 0.198731 -67.60936 -72.073965 -84.374387 13.826966 29.742511 -0.396832 -148.749094 24.215117 -144.893013 1.122356 -2.341578 -2.715175 155.417446 -2.951474 -161.718377 40.260854 -25.598038 9.56317 -175.772525 0.631951 71.998054 12.646789 -3.805323 2.988739 -11.10979 -11.09224 0.639556 -12.944024 -31.472728 19.221103 160.330407 -33.557197 -122.704378 -14.017182 -2.238172 10.033167 8.30529 20.652685 -5.560763 2.067988 14.75278 -2.660898 0.006937 3.559232 -1.118244 -8.16205 19.525047 -2.734957 150.032306 28.966791 145.934383 -73.138085 84.189116 35.320034 0.03498 0.001192 0.026236 -84.81463 -36.824774 -86.886601 -157.503051 60.748528 -68.248865 -172.547899 -6.709877 154.920944 179.973426 75.750244 0.021865 -138.984733 -27.209982 62.267916 116.299956 11.970873 5.375861 171.13184 37.170597 96.297049
-6.1634 38.2292 -18.402099999999997 -166.827166 67.297653 -159.235032 0.82933 12.184953 176.076663 0.850047 10.702747 -155.295033 11.08905 24.725216 100.747317 -31.342308 11.101564 -59.905853 -0.001753 0.0 -0.000658 0.003952 -0.0 -0.000608 -157.879031 -65.637683 175.446568 -100.296664 -52.208215 -102.164941 -123.948209 -5.284325 -39.278223 15.751686 -37.436678 7.653097 -160.052009 2.212957 88.876871 143.701616 -43.305252 90.098568 10.746929 -19.048152 -4.723004 -0.343699 18.67493 3.957417 -160.739142 -6.877411 143.275461 -163.288354 -4.787072 142.963913 -145.063038 -3.224158 -178.113507 -155.982834 63.722132 172.339097 12.633345 42.933942 10.532185 18.944415 57.666294 9.011832 -4.239939 -44.742822 8.646354 -53.54874 7.378867 14.577287 6.039401 -1.567236 -109.191046 6.892895 -23.691524 5.776849 166.631006 -4.304844 -89.772304 26.737853 -33.00061 -6.862643 83.732291 42.330392 -69.990171 -6.14207 -0.15296 4.823168 160.672773 -6.667606 -143.246323 85.915163 63.861896 -77.759854 145.111883 -0.626723 178.930863 73.650182 -78.003295 95.223016 0.001591 0.000456 0.001017 -44.728693 83.527376 7.327086 -0.000298 -1.6e-05 0.000383 -85.930228 -35.944781 -0.0 111.191258 13.083717 -19.850732 -40.556653 38.786964 -60.480094 0.0 0.000977 -0.000366 117.528971 -48.066765 -55.821544 -126.957883 -45.714071 143.172958 -158.271913 -56.093488 115.66614
-6.1974 38.357400000000005 -18.4853 -166.475133 67.297765 -158.803844 1.268269 17.020371 -0.0 -1.890749 -15.410268 20.475599 10.503012 21.734017 83.573533 -30.148124 1.592419 -45.121426 0.000652 0.0 0.000102 0.000652 0.0 0.000102 1.830074 -69.732972 -16.29836 -125.607297 -22.654012 -150.072979 166.259646 -71.135857 -89.152681 -11.094084 35.122617 2.52415 -2.925639 2.862055 0.521997 -152.151209 -61.739716 117.542674 37.217333 -57.917292 -0.641304 -4.349791 28.195508 5.435335 -169.09029 -33.247309 145.374761 179.825347 -48.68174 140.929395 -145.11899 0.309219 -179.227526 11.901172 29.602705 -5.638731 -0.168985 -0.436444 -0.155487 36.619748 81.000392 -0.073892 -0.022819 -0.138701 0.030548 -48.143691 24.550983 -22.203933 -64.624599 26.286869 -127.704613 74.171654 60.091734 -52.732131 -173.668454 -23.208401 -87.965594 64.852077 4.796226 -13.678474 156.462498 -26.639859 -122.369464 165.49218 -26.033768 -119.11916 125.644714 49.840684 -115.275094 162.84022 -3.991849 -142.996429 72.350794 72.973834 -90.218602 150.678634 -62.400683 169.411149 74.131633 -51.746054 72.618683 -41.889998 80.414658 4.492234 179.981818 75.750507 0.01496 126.082132 -5.173624 93.759674 119.556993 1.636294 89.165742 132.635359 -1.678672 174.803591 -0.005725 -0.000637 -0.002863 116.134244 -47.614795 -0.0 -120.15025 -3.251959 -87.074155 -64.432099 37.432778 -174.460382
-6.2342 38.4938 -18.5666 -165.94656 67.290697 -158.225256 -0.65496 13.73769 115.231168 -11.068712 4.82785 -93.697815 -9.569528 19.884215 -49.718195 31.430539 -5.671003 91.589409 0.002033 -0.0 -0.003976 0.002089 0.0 0.001674 -155.614038 -4.236473 161.990832 -31.332745 20.674997 -3.882262 -171.412554 -2.310555 -73.78186 -6.786177 23.774864 0.929208 -93.742857 37.964463 53.549353 -120.24364 -14.601802 74.225904 -117.899751 27.950063 99.679309 -16.033985 33.256275 4.420333 -153.320502 13.628805 138.862073 -83.229365 63.977163 75.272393 -145.098823 -1.521824 -178.64943 12.04321 29.417655 -5.660009 4.121506 11.85075 3.737746 -21.600241 -38.983549 -22.160151 40.048684 -86.055505 61.579538 -77.674594 49.328632 58.438292 84.952616 -35.640429 -63.144977 -108.652232 -83.384354 -90.047036 -4.41638 -4.400836 0.512531 100.718367 15.680322 -91.387757 -60.462068 -70.523458 -15.712714 0.414102 25.305362 -2.122047 8.417715 20.880306 -5.644856 169.31978 -23.649619 -144.317456 0.001205 0.06378 -0.020047 156.117864 -13.74457 -173.483806 -0.2118 0.551813 -0.194213 51.166008 -53.093026 51.223155 -0.000976 -0.000585 0.001255 -84.862724 -38.658984 -175.421802 -113.480941 -7.811614 -174.84454 -91.15387 -53.901082 -160.398913 -179.999494 75.750448 -0.0 -136.920687 -28.314993 -116.895713 -109.098809 -14.646545 108.676642 -88.736242 15.947492 -13.413654
-6.274 38.6815 -18.662200000000002 -165.205542 67.250453 -157.444958 -0.299674 13.903882 114.508569 -11.141135 4.781342 -92.962308 9.869307 29.071183 126.74094 -29.359599 24.908569 -82.235466 -0.003401 -0.0 0.000178 0.002835 -0.0 -0.000758 -157.796697 -22.115362 165.467795 1.65528 64.16276 -30.086516 -22.917018 -42.732755 -161.196683 153.59353 -47.415541 133.565773 -164.697941 -2.372012 89.585915 -154.713399 -0.409421 78.420196 -148.885461 -12.609997 120.244736 -79.510329 57.403371 61.367444 2.098888 -6.305527 -1.082749 -175.073363 -39.008831 143.393258 -145.121762 1.976478 -179.748713 -154.55652 71.864024 169.596351 7.225776 22.273579 6.416146 -148.079701 12.687037 -143.839838 14.148899 43.061399 -15.997024 174.954435 -31.24955 -118.992529 -70.624255 73.64355 -44.497239 15.804872 6.389587 0.810059 -175.88135 -21.257978 -88.494646 -141.657652 -57.794655 -103.861712 1.955979 3.105731 -1.14078 -147.920536 -56.169154 -85.317762 0.220204 0.638458 -0.121707 -15.802246 -37.087124 0.866052 -0.004666 0.917968 -0.28711 155.495086 -1.209428 -171.989168 11.663815 -23.130304 11.071475 4.838346 -17.965952 6.995172 0.0 0.000921 -0.000569 -82.846102 -37.632084 -79.830492 -144.590243 60.553828 38.340204 178.897631 20.086842 -84.204976 179.997761 75.748721 0.00231 -139.40916 -27.96429 97.488988 121.302947 -14.989245 75.08319 48.490566 41.574007 171.452135
